<svg width="40" height="40" viewBox="0 0 40 40" fill="none" xmlns="http://www.w3.org/2000/svg">
<circle cx="20" cy="20" r="20" fill="#008EF1"/>
<mask id="path-2-inside-1_491_630" fill="white">
<path d="M24.5 18.75C24.5 21.9256 21.9256 24.5 18.75 24.5C15.5744 24.5 13 21.9256 13 18.75C13 15.5744 15.5744 13 18.75 13C21.9256 13 24.5 15.5744 24.5 18.75ZM14.6094 18.75C14.6094 21.0368 16.4632 22.8906 18.75 22.8906C21.0368 22.8906 22.8906 21.0368 22.8906 18.75C22.8906 16.4632 21.0368 14.6094 18.75 14.6094C16.4632 14.6094 14.6094 16.4632 14.6094 18.75Z"/>
</mask>
<path d="M24.5 18.75C24.5 21.9256 21.9256 24.5 18.75 24.5C15.5744 24.5 13 21.9256 13 18.75C13 15.5744 15.5744 13 18.75 13C21.9256 13 24.5 15.5744 24.5 18.75ZM14.6094 18.75C14.6094 21.0368 16.4632 22.8906 18.75 22.8906C21.0368 22.8906 22.8906 21.0368 22.8906 18.75C22.8906 16.4632 21.0368 14.6094 18.75 14.6094C16.4632 14.6094 14.6094 16.4632 14.6094 18.75Z" fill="white" stroke="white" stroke-width="2" mask="url(#path-2-inside-1_491_630)"/>
<path d="M22.75 22.5L27 27" stroke="white" stroke-width="3" stroke-linecap="round"/>
</svg>
