<svg xmlns="http://www.w3.org/2000/svg" xmlns:xlink="http://www.w3.org/1999/xlink" width="640" height="647.47" xmlns:v="https://vecta.io/nano"><style><![CDATA[.B{fill:#1a2e35}.C{fill:#008ef1}.D{fill:#fff}.E{fill:#cc7a63}.F{fill:#375a64}.G{opacity:.2}.H{fill:#e1e1e1}.I{fill:#B3DDFB}.J{fill:#ffc19d}.K{fill:#ff9c6a}]]></style><g fill="#b3bcbc"><path d="M143.69 401.02c-7.68.66-15.21 3.18-21.82 7.3-3.05 1.9-6.08 4.39-7.07 7.94-.21.75-.27 1.68.28 2.21.41.39 1.02.43 1.57.44 11.1.07 22.28-7.52 27.04-17.89m-.81-.17c-6.22-.12-12.49-.25-18.59-1.5-6.11-1.25-12.11-3.71-16.76-7.99-1.41-1.3-2.77-2.98-2.71-4.93 14.16.29 27.93 4.17 38.06 14.42"/><path d="M143.55 401.02c-4.34-4.53-8.35-9.54-10.83-15.39-2.48-5.84-3.32-12.63-1.27-18.65 4.25 2.53 6.7 7.35 8.44 12.1 2.69 7.34 4.22 15.13 4.5 22.97m19.68 8.41c-4.83 4.8-7.35 11.29-8.62 18.09s-.46 14.01 2.29 20.32c4.97-4.38 6.63-11.62 6.74-18.38s-1.06-13.17-.43-19.89m3.8.98c-12.19-7.59-20.17-21.94-20.38-36.67 11.1 8.79 19.11 22.25 20.38 36.67m21.89 5.27c-5.05 3.44-9.08 8.44-11.46 14.18-2.38 5.75-3.08 12.23-2 18.38.15.84.45 1.81 1.24 2.05.68.21 1.38-.26 1.92-.74 4.45-3.95 6.48-10.08 7.49-16.05s1.22-12.12 2.91-17.92"/><path d="M188.81 416.36c-8.46-6.31-15.12-15.17-18.95-25.2-1.51-3.96-2.56-8.56-.74-12.38.16-.33.36-.67.7-.77.32-.1.66.06.95.22 2.68 1.45 4.85 3.78 6.55 6.36 1.71 2.59 2.99 5.44 4.27 8.28 2.36 5.25 5.4 10.51 5.83 16.29.1 1.37.33 2.76.59 4.11.27 1.35.52 1.7.67 2.81m34.16-18.79c-8.74-7.17-14.18-19.87-14.05-31.41.01-.85.12-1.84.82-2.29 1.07-.68 2.33.5 3.04 1.57 6.22 9.44 9.79 20.72 10.19 32.13m4.17-.19c12.52-5.32 22.56-17.41 26.45-30.84-7.13 1.3-13.78 5.26-18.45 10.99-4.68 5.73-7.94 12.35-8 19.85"/><path d="M225.03 389.35c-1.31-14.47 5.25-29.68 16.04-38.98 2.13 5.73 1.04 12.31-1.58 17.81s-6.64 10.14-10.61 14.69c-1.55 1.76-3.75 4.09-3.85 6.48m-25.42-25.36c-2.5-6.87-5.02-13.8-8.83-20s-9.04-11.68-15.62-14.43c2.48 15.25 11.23 28.51 24.71 35.14"/><path d="M211.07 339.98c-2.33-17.05 3.76-36.85 16.02-48.49 4.43 17.14-2.12 38.13-16.02 48.49m-2.32 5.5c10.65-5.92 23.38-5.93 35.09-9.04 2.5-.67 5.04-1.61 6.89-3.49 1.85-1.87 2.84-4.87 1.79-7.32-.87-2.03-2.97-3.28-5.09-3.62s-4.28.1-6.37.65c-12.77 3.37-23.28 11.37-31.69 21.88m-1.12 12.19c2.63-1.04 4.21-.45 7.02-.28 9.53.61 19.19-1.1 27.99-4.95.92-.4 1.99-1.11 1.84-2.13-.12-.89-1.1-1.33-1.94-1.55-6.02-1.61-12.45-.92-18.41.91-5.97 1.83-11.57 2.8-16.8 7.59m-36.34-36.68c13.22 1.47 26.97-3.18 36.79-12.45.45-.42.91-.91.97-1.53.14-1.4-1.68-2-3.04-2.03-13.65-.26-26.18 4.96-34.72 16.01"/><path d="M176.98 311.08c4.49-15.97 16.84-29.33 32.04-34.68-1.2 8.28-5.76 15.78-11.69 21.47-5.92 5.7-12.9 9.96-20.35 13.21m-16.91-16.99c-7.3-8.25-11.85-15.71-18.93-24.19-.57-.68-1.34-1.42-2.17-1.18-1.16.34-1.08 2.07-.69 3.25 3.42 10.24 11.67 18.61 21.63 21.94"/><path d="M160.17 295.56c3.12-8.26 3.96-16.54 3.86-25.42-.08-6.17-1.17-12.8-5.35-17.19-4.01 2.99-6.13 8.17-6.45 13.27-.32 5.11.97 10.18 2.67 14.99 1.69 4.81 3.81 9.46 5.27 14.35m11.08-14.91c9.24-14.84 15.9-31.41 19.55-48.67-5.45 1.51-9.49 6.28-12.41 11.29-6.67 11.44-9.59 24.26-7.39 37.42m-3.37 16.68c7-4.3 13.92-8.93 19.54-15.03 5.52-6 9.61-13.23 13.64-20.38.33-.59.68-1.26.53-1.93-.16-.73-.89-1.2-1.61-1.27s-1.42.18-2.1.45c-7.76 3.13-14.05 9.37-18.76 16.48-4.7 7.11-7.98 13.75-11.24 21.68m-24.98 45.25c-11.11-5.8-18.63-16.8-21.71-29.28 5.76 2.15 10 7.29 13.16 12.72 3.16 5.42 5.44 11.77 9.02 16.91m-24.79 4.15c-11.18 8.35-18.69 21.79-20.1 35.99 6.15-3.38 10.75-9.26 13.93-15.68 3.17-6.42 5.05-13.43 6.9-20.38m-15.57 5.18c-5.72 3.74-11.41 7.08-15.41 12.76-3.99 5.68-6.01 13.08-4.37 19.9 5.47-3.33 9.64-8.62 12.69-14.38 3.05-5.77 5.08-12.04 7.09-18.28m17.7-13.46c-7.24.48-14.65 1-21.29 4.03s-12.46 9.12-13.2 16.6c6.59-.78 12.37-4.76 17.67-8.89s11.76-9.24 18.08-11.29"/><path d="M121.41 339.01c-14.41-1.99-28.54-14.7-33.56-28.83 13.96 5.2 26.05 15.59 33.56 28.83m5.49-41.63c-1.17-4.98-2.93-9.79-4.3-14.72s-2.36-10.05-1.92-15.16c.45-5.11 2.47-10.22 6.28-13.5 5.94 13.53 6.01 29.69.19 43.28m-.77 8.29c-5.26-1.68-11.89-4.36-17.39-4.39-5.51-.03-11.29 1.86-14.81 6.25 10.21 4.68 22.56 3.97 32.2-1.86"/><path d="M123.82 300.25c-4.93-3.15-9.91-6.33-14.04-10.54s-7.38-9.61-8.04-15.57c11.01 5.38 19.41 13.8 22.38 26.03m-17.02-30.2c-3.83-10.84-.73-23.42 5.55-32.96.79-1.2 1.69-2.39 2.93-3.08s2.9-.75 3.96.21c1.4 1.26 1.17 3.54.77 5.42-2.36 10.92-6.88 21.34-13.21 30.41m-5.14-7.3c-3.8-5.95-7.65-12-9.77-18.79s-2.34-14.53.96-20.8c5.02 5.09 6.72 12.72 7.35 19.97s.46 14.69 2.68 21.6"/><path d="M104.67 266.7c-6.8-4.78-12.95-12.79-20.74-15.51-5.45-1.9-11.55-1.33-16.8-3.74 1.32 5.04 5.02 9.15 9.37 11.79s9.33 3.95 14.29 4.86 8.98 1.37 13.88 2.6"/><path d="M242.15 456.34c-.17.13-31.44-42.72-69.85-95.7l-69.26-96.18c.17-.13 31.44 42.71 69.86 95.71l69.25 96.17z"/><path d="M185.14 299.46c.04.03-.36.68-1.12 1.82l-3.21 4.84c-2.69 4.09-6.33 9.8-10.06 16.29-3.62 6.53-7.27 12.37-8.27 17.18-.51 2.39-.34 4.4-.02 5.72.32 1.33.69 2 .63 2.03-.02.01-.13-.15-.31-.46-.16-.33-.4-.82-.6-1.49-.42-1.33-.68-3.42-.22-5.91.46-2.48 1.58-5.27 3.07-8.17s3.2-6.04 5.08-9.3c3.75-6.5 7.46-12.19 10.27-16.21 1.4-2.01 2.58-3.61 3.4-4.7.84-1.09 1.32-1.67 1.36-1.64z"/><path d="M175.12 259.99c.03.01-.01.29-.09.82l-.39 2.33-1.58 8.54-5.49 28.11c-2.14 10.97-3.6 21-4.37 28.28-.39 3.64-.63 6.6-.77 8.65l-.17 2.36c-.05.54-.08.82-.11.82s-.04-.29-.04-.83-.01-1.34.03-2.37c.05-2.05.22-5.02.54-8.68.63-7.32 2.01-17.39 4.16-28.38l5.7-28.07 1.81-8.49.53-2.3c.14-.52.22-.79.24-.79z"/><path d="M164.99 311.27c-.23.05-1.21-4.22-2.83-9.34l-3.26-9.18c.17-.11 2.35 3.73 3.97 8.93.82 2.59 1.39 4.98 1.73 6.72.35 1.75.49 2.84.39 2.87zm.99 39.87c-.02.05-.68-.1-1.86-.42l-5-1.4-16.5-4.61-16.57-4.36-5.02-1.31-1.82-.58c.01-.05.68.05 1.89.28l5.08 1.07c4.28.96 10.17 2.39 16.64 4.14a411.22 411.22 0 0 1 16.46 4.83l4.94 1.64c1.15.42 1.78.67 1.76.72z"/><path d="M150.38 346.75c-.02.18-4.03-.77-8.01-3.87-2.84-2.15-4.73-4.68-5.47-5.92l.28-.18c.24.59.35.92.29.95-.05.03-.26-.25-.59-.79l.28-.18c.94 1.08 2.89 3.41 5.65 5.51 3.86 2.99 7.65 4.25 7.57 4.48zm-19.95-5.39c-.01.15-1.34-.21-3.34.41-2 .58-4.44 2.26-6.84 4.49-2.43 2.19-4.38 4.45-5.71 6.14l-2.19 2.74c-.08-.05.53-1.27 1.77-3.08a38.17 38.17 0 0 1 5.64-6.39c2.43-2.25 5.04-3.95 7.2-4.43 2.16-.52 3.51.06 3.47.12zm-4.79-1.35c.02.13-1.76.49-4.54 1.43-2.77.93-6.51 2.54-10.26 5.01a46.18 46.18 0 0 0-8.72 7.52c-1.99 2.21-3.05 3.74-3.16 3.66-.04-.03.19-.44.64-1.15.45-.72 1.17-1.71 2.12-2.87 1.9-2.33 4.9-5.28 8.71-7.81 3.82-2.51 7.66-4.08 10.51-4.88 1.42-.41 2.59-.67 3.41-.78.83-.14 1.29-.18 1.29-.13zm10.64-29.68c-.13.17-4.33-3.11-9.37-7.33-5.05-4.21-9.03-7.76-8.9-7.93s4.32 3.11 9.37 7.33c5.05 4.21 9.03 7.76 8.9 7.93z"/><path d="M136.45 310.2c-.13.2-2.91-2.02-6.93-3.36-4.02-1.44-7.5-1.02-7.52-1.24-.02-.09.84-.36 2.27-.4 1.43-.05 3.41.19 5.48.9 4.18 1.4 6.83 3.97 6.7 4.1zm89.11 123.23c-.06.06-.94-.89-2.73-2.35-1.78-1.47-4.53-3.38-8.16-5.28-7.26-3.84-18.05-7.48-30.26-10.03-6.1-1.33-11.94-2.52-17.19-3.93-5.25-1.4-9.89-3.01-13.66-4.7-3.77-1.68-6.67-3.39-8.58-4.7-.95-.66-1.68-1.19-2.16-1.57s-.72-.59-.71-.61c.04-.06 1.07.71 3.02 1.93s4.86 2.84 8.63 4.45c3.76 1.61 8.39 3.16 13.63 4.51 5.23 1.36 11.06 2.53 17.17 3.86 12.24 2.56 23.09 6.3 30.35 10.3 3.63 1.99 6.36 3.99 8.1 5.54.87.78 1.52 1.41 1.93 1.87.43.45.64.69.62.71z"/><path d="M230.55 369.65c.05.03-.34.85-.99 2.33-.64 1.5-1.48 3.7-2.24 6.51s-1.41 6.23-1.84 10.07-.65 8.09-.78 12.57c-.25 8.96-.69 17.06-.24 22.9.2 2.92.5 5.27.76 6.88.25 1.62.41 2.51.35 2.52-.03.01-.1-.21-.21-.63-.1-.42-.28-1.03-.43-1.84-.35-1.61-.74-3.96-1-6.89-.59-5.88-.23-14.02.02-22.97.13-4.48.38-8.76.85-12.63s1.19-7.32 2.02-10.14 1.77-5.02 2.49-6.49c.35-.74.69-1.28.89-1.66.2-.36.32-.54.35-.53z"/><path d="M240.2 381.58c.07.08-1.19 1.34-3.23 3.37-2.02 2.04-4.85 4.84-7.33 8.44-2.45 3.62-3.94 7.39-4.67 10.18-.75 2.8-.73 4.63-.86 4.62-.04 0-.1-.45-.09-1.28s.13-2.03.44-3.47c.61-2.89 2.05-6.78 4.57-10.49 2.55-3.69 5.47-6.46 7.59-8.4 2.13-1.93 3.51-3.04 3.58-2.97z"/><path d="M224.16 406.01c-.27.04-.51-3.82-1.76-8.29-1.35-4.44-3.31-7.73-3.07-7.86.08-.05.64.72 1.4 2.06.75 1.34 1.71 3.28 2.38 5.57s.93 4.45 1.05 5.99c.12 1.56.1 2.52 0 2.53zm-7.19-77.98c.02.01-.1.28-.35.77l-1.12 2.13-1.73 3.39-2.1 4.58-1.14 2.7-1.1 2.99c-.8 2.05-1.44 4.32-2.16 6.68-1.31 4.77-2.47 10.11-3.18 15.79-.66 5.69-.81 11.16-.68 16.12.14 2.48.22 4.84.51 7.03.13 1.1.2 2.16.36 3.17l.46 2.91c.25 1.86.66 3.51.95 4.98.28 1.47.59 2.71.87 3.73l.58 2.35c.13.54.18.83.15.84-.02.01-.13-.26-.3-.79l-.72-2.31c-.32-1-.68-2.24-.99-3.71-.33-1.46-.78-3.11-1.06-4.98l-.51-2.92c-.17-1.02-.26-2.09-.4-3.19-.31-2.2-.42-4.58-.58-7.07-.18-5-.04-10.51.62-16.25.72-5.73 1.9-11.1 3.26-15.9.75-2.38 1.42-4.65 2.24-6.71.4-1.03.74-2.05 1.15-2.99l1.19-2.7c.72-1.74 1.54-3.22 2.21-4.56.66-1.34 1.3-2.45 1.84-3.34l1.25-2.06c.3-.46.46-.7.48-.68z"/><path d="M204.08 366.17c-.06.03-.53-1.24-.17-3.31.33-2.05 1.68-4.75 4.09-6.75 2.41-1.98 5.06-2.92 6.93-3.48 1.9-.54 3.1-.72 3.12-.63.03.11-1.13.48-2.96 1.15-1.81.68-4.34 1.68-6.62 3.56-2.27 1.88-3.6 4.36-4.04 6.26-.47 1.92-.21 3.19-.35 3.2zm-.87 7.15c-.23.03-.38-3.32-2.35-6.76-1.92-3.47-4.67-5.26-4.52-5.45.05-.08.79.25 1.83 1.08 1.04.82 2.32 2.19 3.34 3.99 1.01 1.8 1.53 3.63 1.7 4.97.18 1.33.08 2.17 0 2.17zm-1.84 88.54c12.79 15.72 29.67 28.71 49.25 39.88l31.96-24.84c-5.1-22.16-12.74-42.29-23.99-59.52l-57.22 44.48z"/><path d="M272.66 447.98c.12.17-10.3 8.49-23.27 18.57l-23.72 17.95c-.12-.17 10.29-8.49 23.27-18.58l23.72-17.94zm3.6 6.5c.12.17-9.64 7.98-21.8 17.43l-22.26 16.81c-.12-.17 9.64-7.98 21.81-17.43l22.25-16.81z"/><path d="M222.71 462.12c.17-.13 2.77 3.18 5.82 7.39l5.22 7.86c-.17.13-2.77-3.18-5.82-7.39l-5.22-7.86zm17.13-13.31c.17-.13 2.86 3.3 6.02 7.66l5.42 8.13c-.17.13-2.86-3.3-6.02-7.66l-5.42-8.13zm15.97-12.62c.17-.13 2.91 3.37 6.13 7.82l5.54 8.29c-.17.13-2.91-3.37-6.13-7.82l-5.54-8.29z"/><path d="M265.39 428.95c.12.17-12.12 9.9-27.33 21.73l-27.79 21.11c-.12-.17 12.11-9.9 27.34-21.73l27.78-21.11z"/></g><path d="M174.01 106.35c1.98-.14 5.87-2.37 5.88-2.37.04-.02-2.2-2.21-2.35-2.33-1.81-1.4-6.1-3.02-8.17-1.5-1.49 1.09-1.54 3.24-.39 4.6 1.16 1.39 3.34 1.72 5.03 1.6zm7.32 11.08c1.8-.65 4.78-3.61 5.02-3.85 1.58 1.74 3.35 3.39 5.22 4.96l3.29 2.63-1.15-.62c-2.1-.86-6.66-1.24-8.26.79-1.16 1.46-.66 3.54.8 4.55 1.49 1.03 3.68.75 5.27.17 1.62-.59 4.21-3.06 4.89-3.72l1.29.98 6.15 4.66 2.05 1.69-1-.54c-2.1-.86-6.66-1.24-8.26.79-1.16 1.46-.66 3.54.8 4.55 1.49 1.02 3.68.75 5.27.17 1.54-.56 3.96-2.82 4.77-3.6l1.98 1.83 1.25 1.28 1.2 1.32 2.18 2.63 1.4 1.76-2.2-1.7c-1.95-1.18-6.4-2.27-8.28-.52-1.36 1.26-1.17 3.4.12 4.62 1.32 1.25 3.52 1.32 5.18.99 1.83-.35 5.09-2.7 5.49-3l2.15 2.82 3.82 5.37 1.47-.8-4.11-5.53-2.46-3.08c.21-.25 1.38-1.68 2.32-3.16 1.8.67 5.5.58 5.98.57l.29 3.58.32 6.35 1.59-.86-.41-5.62-.41-3.97c.47-.14 4.29-1.28 5.71-2.53 1.29-1.13 2.62-2.95 2.52-4.79-.1-1.81-1.58-3.31-3.39-3.01-2.5.41-4.49 4.67-4.83 6.99-.02.14-.08 1.64-.11 2.6l-.2-1.68-.51-3.5-.33-1.78c-.1-.6-.28-1.21-.41-1.83l-1.21-4.25c.97-.13 4.39-.66 5.83-1.58s3.03-2.5 3.2-4.34c.17-1.8-1.08-3.52-2.91-3.51-2.53.01-5.12 3.92-5.8 6.15-.04.14-.36 1.8-.51 2.71l-.86-2.55-2.82-7.36-.87-2.26c.34-.04 4.43-.58 6.04-1.61 1.44-.92 3.03-2.5 3.2-4.34.17-1.8-1.08-3.52-2.91-3.5-2.53.01-5.12 3.92-5.8 6.15-.05.17-.5 2.56-.59 3.17L217 104.3c-.75-2.29-1.37-4.58-1.81-6.84.16-.02 4.42-.56 6.08-1.61 1.44-.92 3.03-2.5 3.2-4.34.17-1.8-1.08-3.52-2.91-3.51-2.53.01-5.12 3.92-5.8 6.15-.05.18-.54 2.75-.59 3.22l-.09-.41c-.44-2.42-.57-4.82-.58-7.08l.13-3.78c.8-.02 4.48-.13 6.07-.91 1.53-.75 3.27-2.14 3.64-3.95.36-1.78-.7-3.62-2.52-3.81-2.52-.27-5.5 3.31-6.42 5.45a60.75 60.75 0 0 0-.69 2.27l.14-1.64.78-5.35.5-2.47c.78-.44 3.91-2.26 4.95-3.69 1.02-1.39 1.95-3.46 1.47-5.24-.47-1.75-2.23-2.88-3.93-2.18-2.36.96-3.41 5.56-3.27 7.9.01.2.55 3.34.6 3.32 0 0 .04-.02.05-.03l-.52 2.36-.89 5.35c-.25 1.97-.46 4.13-.49 6.41-.03 2.29.05 4.71.44 7.18 0 .03.01.06.02.08l-1.41-2.71c-1.3-1.92-4.89-4.84-7.31-4.07-1.74.56-2.44 2.58-1.76 4.25.7 1.71 2.67 2.72 4.31 3.15 1.85.48 5.91-.28 6.24-.34.4 2.35.99 4.74 1.71 7.11l1.35 4.07-.63-1.17c-1.3-1.92-4.89-4.84-7.31-4.07-1.74.56-2.44 2.58-1.76 4.25.7 1.71 2.67 2.72 4.31 3.15 1.66.43 5.14-.14 6.06-.31l.56 1.55 2.65 7.4.81 2.59-.55-1.02c-1.3-1.92-4.89-4.84-7.31-4.07-1.74.56-2.44 2.58-1.76 4.25.7 1.71 2.67 2.72 4.31 3.15 1.59.42 4.8-.09 5.89-.28l.68 2.66.36 1.78.3 1.79.42 3.44.23 2.27-.93-2.67c-.67-1.4-2.27-3.38-4.01-4.45-.1-.21-.21-.4-.34-.59-1.05-1.45-3.08-1.85-4.43-.58-1.87 1.77-1.25 6.46-.31 8.59.06.13.81 1.42 1.29 2.23l-1.07-1.29-2.29-2.63-1.23-1.29c-.4-.44-.88-.85-1.32-1.29l-3.28-2.85c.73-.66 3.31-3.06 4.02-4.65s1.19-3.81.35-5.45c-.82-1.6-2.77-2.32-4.29-1.26-2.1 1.46-2.18 6.19-1.56 8.44a78.49 78.49 0 0 0 1.02 2.56l-2.07-1.64-6.27-4.53-1.92-1.39c.26-.23 3.38-3.01 4.18-4.79.71-1.59 1.19-3.81.35-5.45-.82-1.6-2.77-2.31-4.29-1.26-2.11 1.46-2.18 6.19-1.56 8.44.05.17.94 2.42 1.2 2.98l-4.14-3.13c-1.85-1.48-3.58-3.04-5.15-4.67.12-.11 3.39-2.99 4.21-4.82.71-1.59 1.19-3.81.35-5.45-.82-1.6-2.77-2.31-4.29-1.26-2.11 1.46-2.18 6.19-1.56 8.44.05.18 1.02 2.6 1.22 3.02-.09-.1-.2-.19-.29-.29-1.66-1.77-3.04-3.7-4.26-5.57l-1.9-3.23c.66-.47 3.66-2.66 4.58-4.23.88-1.5 1.59-3.65.93-5.38-.65-1.68-2.51-2.62-4.13-1.74-2.25 1.21-2.83 5.9-2.45 8.21.02.13.37 1.38.63 2.29l-.76-1.45-2.2-4.91-.9-2.34c.42-.81 2.05-4.12 2.17-5.91.11-1.75-.22-4-1.57-5.21-1.32-1.19-3.39-1.12-4.44.42-1.46 2.15.12 6.59 1.48 8.46.12.16 2.24 2.47 2.26 2.43 0 0 .02-.04.02-.05l.82 2.27 2.11 4.97 3.01 5.63c1.2 1.93 2.55 3.9 4.2 5.74l.06.06-2.63-1.45c-2.1-.86-6.66-1.24-8.26.79-1.16 1.46-.66 3.54.8 4.55 1.44.94 3.63.67 5.22.09zm32.98-31.76c.05 0-.65-3.1-.72-3.29-.76-2.21-3.48-6-6.02-5.92-1.82.06-3.01 1.82-2.78 3.61.24 1.84 1.88 3.36 3.35 4.22 1.74 1.01 6.17 1.38 6.17 1.38z" class="B"/><path d="M487.99 37.6l-8.92 3.3-3.81-12.06C468.23 6.6 445.78-5.31 425.24 2.3c-20.55 7.61-31.53 31.9-24.5 54.15l3.81 12.06-8.95 3.31c-6.96 2.58-10.73 10.88-8.34 18.43l24.81 78.5c2.42 7.66 10.1 11.74 17.06 9.16l92.39-34.23c7.07-2.62 10.84-10.95 8.42-18.6l-24.81-78.5c-2.38-7.53-10.06-11.6-17.14-8.98zm-70.41 12.61c-3.85-12.19 2.16-25.51 13.43-29.68 11.25-4.17 23.55 2.36 27.41 14.55l3.81 12.06-40.83 15.13-3.82-12.06zm51.94 69.65l6.34 20.05c.27.85-.2 1.71-.99 2.01L466 145.2c-.68.25-1.55-.12-1.81-.97l-6.34-20.05c-6.87-.3-13.24-5.01-15.63-12.56-3.06-9.7 1.73-20.3 10.71-23.63s18.77 1.87 21.83 11.57c2.4 7.55.03 15.51-5.24 20.3z" fill="#b3bcbc"/><g fill="#1a1d1e"><path d="M478.69 40.69c.08.24-16.53 6.68-37.11 14.39l-37.42 13.51c-.08-.24 16.53-6.68 37.11-14.39l37.42-13.51zm19.61 3.3c.02-.01.08.15.2.47l.5 1.4 1.85 5.43 6.64 20.04 9.74 29.76 5.68 17.61c.88 3.1 1.6 6.41 1.3 9.84-.15 1.7-.6 3.41-1.4 4.96-.81 1.54-1.95 2.89-3.27 3.99-2.66 2.2-5.78 3.49-8.78 4.65l-8.92 3.32-16.87 6.25-28.58 10.54-19.3 7.03-5.26 1.87-1.38.46-.48.13s.15-.09.45-.22l1.35-.55 5.2-2.03 19.2-7.31 28.52-10.73 16.85-6.31 8.91-3.33c2.99-1.15 6.02-2.42 8.53-4.5 1.24-1.04 2.29-2.29 3.05-3.71.74-1.43 1.15-3.01 1.3-4.61.29-3.22-.39-6.44-1.25-9.49l-5.62-17.6-9.56-29.82-6.37-20.13-1.69-5.49-.42-1.44-.12-.48z"/><path d="M449.57 19.27c-.05.08-.92-.48-2.62-1.19-1.71-.67-4.29-1.46-7.56-1.57-3.25-.12-7.2.4-11.15 2.18-3.93 1.76-7.81 4.9-10.58 9.16-2.83 4.24-4.07 9.16-4.07 13.61-.04 4.47.88 8.46 1.76 11.73.91 3.27 1.85 5.87 2.46 7.67.62 1.8.96 2.81.9 2.83s-.5-.93-1.22-2.7-1.74-4.33-2.74-7.62c-.97-3.28-1.97-7.31-1.98-11.92-.05-4.58 1.22-9.74 4.15-14.13 2.88-4.42 6.91-7.64 11-9.42 4.1-1.8 8.18-2.26 11.51-2.05 3.35.2 5.97 1.1 7.66 1.89.84.43 1.48.77 1.88 1.07.41.28.62.44.6.46zm.79 70.15c-.01-.02.29-.18.88-.45.58-.28 1.48-.64 2.67-1 1.18-.39 2.7-.67 4.5-.77 1.79-.09 3.89.1 6.07.94 4.42 1.61 8.5 6.29 10.5 12.5.96 3.13 1.05 6.77.08 10.29-1.03 3.5-2.92 6.87-5.66 9.69l.11-.48 7.41 21.04.16.45-.44.15-3.96 1.37-8.61 2.99-.43.15-.14-.44c-2.37-7.43-4.97-14.44-6.86-21.14l.37.31c-3.54-.25-6.73-1.79-9.26-3.79-2.55-2.03-4.5-4.54-5.81-7.19-1.29-2.66-1.94-5.48-1.83-8.07.06-2.6.64-4.95 1.45-6.93 1.61-4 4.02-6.51 5.8-7.88 1.82-1.38 3-1.74 3-1.74.04.08-1.1.53-2.83 1.95-1.7 1.42-3.99 3.93-5.5 7.86-1.51 3.83-2.16 9.34.53 14.48 1.29 2.54 3.2 4.95 5.66 6.89 2.45 1.92 5.51 3.36 8.84 3.57l.29.02.08.29c1.91 6.65 4.52 13.63 6.91 21.09l-.57-.29 8.61-2.99 3.96-1.37-.28.6-7.36-21.06-.09-.26.21-.21c2.59-2.65 4.48-5.94 5.47-9.27.94-3.36.89-6.82-.01-9.84-1.89-6.02-5.78-10.6-10-12.21-2.08-.84-4.12-1.07-5.87-1.02-1.75.06-3.26.3-4.44.63-2.37.6-3.58 1.22-3.61 1.14z"/></g><path d="M421.2 629.64l-177.01-.85c-21.29-.1-38.47-18.05-38.38-40.1l1.88-459.58c.09-22.06 17.43-39.87 38.74-39.76l177.01.85c21.29.1 38.47 18.05 38.38 40.1l-1.88 459.58c-.1 22.06-17.44 39.86-38.74 39.76z" class="F"/><path d="M423.18 106.05l-34.32-.16c-4.6-.02-8.35 4-8.37 8.98l-.03 6.45c-.02 4.98-3.77 9-8.37 8.98l-66.9-.32c-4.6-.02-8.32-4.08-8.3-9.06l.03-6.45c.02-4.98-3.7-9.04-8.3-9.06l-12.07-.06-30.04-.14c-14.92-.07-27.07 12.4-27.13 27.85l-1.83 448.59c-.06 15.44 11.97 28.01 26.88 28.09l176.66.84c14.92.07 27.06-12.4 27.13-27.85l1.83-448.59c.07-15.44-11.97-28.02-26.87-28.09z" class="D"/><path d="M399.4 550.73l-131.36-.63c-1.36-.01-2.46-1.54-2.45-3.43l.15-35.59c.01-1.89 1.12-3.41 2.48-3.4l131.36.63c1.36.01 2.46 1.54 2.45 3.43l-.15 35.59c-.01 1.88-1.12 3.41-2.48 3.4z" fill="#B3DDFB"/><path d="M248.634 237.674l45.58.218-.041 8.66-45.58-.218z" class="I"/><path d="M427.87 291.03c-.01-.04.38.02 1.04-.25.62-.25 1.6-1.03 1.72-2.47l-.02-12.64v-9.14-2.56c.02-.89.02-1.72-.5-2.4-.47-.68-1.26-1.12-2.1-1.12h-2.78l-25.6-.05-148.23-.57c-.76-.01-1.51.38-1.95 1.02-.49.65-.47 1.42-.46 2.4l-.02 5.57-.05 11.03-.02 5.45c.03.87-.08 1.91.07 2.58.18.74.71 1.36 1.38 1.65.35.15.68.2 1.1.19l1.3.01 2.59.01 5.14.03 39.36.22 66.64.42 44.92.37 12.21.15 3.18.06 1.08.04s-.37.03-1.08.04l-3.18.03-12.22.03-44.93-.06-66.64-.22-39.36-.16-5.14-.02-2.59-.01-1.3-.01c-.44.01-.99-.06-1.45-.27-.93-.4-1.67-1.26-1.91-2.28-.14-.52-.11-1.04-.11-1.47l.01-1.36.02-5.46.04-11.03.02-5.57c.01-.48-.03-.9.05-1.47.08-.54.28-1.05.59-1.49.61-.89 1.65-1.43 2.7-1.42l148.23.85 25.6.19 2.78.02a3.07 3.07 0 0 1 2.48 1.35c.61.79.6 1.87.57 2.7l-.02 2.56-.08 9.14-.15 12.66c-.15 1.53-1.22 2.32-1.87 2.55-.68.27-1.06.18-1.06.18z" class="H"/><path d="M260.863 270.984l83.37.399-.039 8.1-83.37-.399z" fill="#B3DDFB"/><path d="M248.314 316.705l45.58.218-.041 8.66-45.58-.218z" class="I"/><path d="M426.7 370.06c0-.03.37 0 1.05-.21.64-.22 1.68-.77 2.24-2.08.3-.65.33-1.43.31-2.33l-.01-2.92-.01-7.28v-9.11-2.55c.04-.88-.06-1.69-.52-2.42-.43-.72-1.12-1.29-1.93-1.55-.79-.26-1.74-.12-2.68-.16l-25.51-.05-147.71-.57c-1.6-.04-3.08 1.31-3.24 2.95l-.05 5.5-.05 10.99-.02 5.44c.03.9-.09 1.84.11 2.56.2.76.67 1.44 1.29 1.88.65.45 1.35.62 2.2.59l2.58.01 5.12.03 39.22.22 66.41.42 44.77.37 12.17.15 3.17.06 1.09.06s-.37.03-1.08.04l-3.17.03-12.17.03-44.77-.06-66.41-.21-39.22-.16-5.12-.02-2.58-.01c-.87.05-1.93-.17-2.71-.75-.8-.57-1.4-1.44-1.66-2.41-.26-1.03-.11-1.92-.15-2.82l.02-5.44.04-10.99.05-5.6c.2-2.11 2.1-3.85 4.16-3.8l147.71.85 25.51.19c.93.05 1.86-.1 2.82.2.93.3 1.71.96 2.19 1.78.51.81.62 1.84.57 2.68l-.02 2.55-.08 9.11-.07 7.28-.03 2.92c.02.87-.03 1.74-.37 2.41-.62 1.36-1.72 1.9-2.39 2.09-.7.18-1.07.11-1.07.11z" class="H"/><path d="M247.974 399.136l45.58.217-.041 8.66-45.58-.217z" class="I"/><path d="M426.36 452.49c0-.03.37 0 1.05-.2a3.69 3.69 0 0 0 2.24-2.08c.3-.65.33-1.43.31-2.33l-.01-2.92-.01-7.28v-9.11-2.55c.04-.88-.06-1.69-.52-2.42-.43-.72-1.12-1.29-1.93-1.55-.79-.26-1.74-.12-2.68-.16l-25.51-.05-147.71-.57c-1.6-.04-3.08 1.31-3.24 2.95l-.05 5.5-.05 10.99-.02 5.44c.03.9-.1 1.84.11 2.56.2.76.67 1.44 1.29 1.88.65.45 1.35.62 2.2.59l2.58.01 5.12.03 39.22.22 66.41.42 44.77.37 12.17.15 3.17.06 1.09.05s-.37.03-1.08.04l-3.17.03-12.17.03-44.77-.06-66.41-.22-39.22-.16-5.12-.02-2.58-.01c-.87.05-1.93-.17-2.71-.75-.8-.57-1.4-1.44-1.66-2.41-.26-1.03-.11-1.92-.14-2.82l.02-5.43.04-10.99.05-5.6c.2-2.11 2.1-3.85 4.16-3.8l147.71.85 25.51.19c.93.05 1.86-.1 2.82.2.92.3 1.71.96 2.19 1.78.51.81.62 1.84.57 2.68l-.02 2.55-.08 9.11-.07 7.28-.03 2.91c.02.88-.03 1.74-.37 2.41-.62 1.36-1.72 1.9-2.39 2.09-.71.19-1.08.12-1.08.12z" class="H"/><path d="M260.543 350.025l83.37.399-.039 8.1-83.37-.399z" fill="#B3DDFB"/><g class="I"><use xlink:href="#B"/><use xlink:href="#C"/><path d="M290.7 437.62c-.01 2.22-1.65 4.02-3.66 4.01s-3.64-1.82-3.63-4.04 1.65-4.02 3.66-4.01c2.01 0 3.64 1.82 3.63 4.04z"/><use xlink:href="#B" x="33.88" y="0.16"/><use xlink:href="#C" x="33.88" y="0.16"/><use xlink:href="#B" x="56.47" y="0.27"/><use xlink:href="#D"/><use xlink:href="#D" x="11.29" y="0.06"/><use xlink:href="#B" x="90.35" y="0.43"/></g><use xlink:href="#E" class="C"/><use xlink:href="#E" opacity=".1"/><path d="M296.909 192.712l83.64.4-.05 10.36-83.64-.4z" class="I"/><path d="M296.909 192.712l83.64.4-.05 10.36-83.64-.4z" class="D G"/><path d="M592.93 636.52c0 .14-130.99.25-292.54.25-161.61 0-292.57-.11-292.57-.25s130.96-.25 292.57-.25l292.54.25zM109.56 401.29c-.86-2.82-3.55-4.92-6.4-5 .74-2.15-.69-4.65-2.71-5.55-2.02-.91-4.4-.5-6.4.48-1.41.69-2.72 1.66-4.24 2.01-2 .47-4.06-.18-6.11-.25-4.17-.14-8.33 2.36-10.27 6.19-.68 1.34-1.1 2.82-1.85 4.12-.6 1.04-1.4 1.95-1.99 2.99-1.72 3.03-1.43 7.14.69 9.88l28.78-6.85c2.34 1.68 5.72 1.63 8.02-.12 2.29-1.76 3.34-5.08 2.48-7.9z" class="B"/><g class="J"><path d="M175.8 510.93l-27.72-2.84-1.61 14.91 31.31-1.13z"/><path d="M196.85 519.67c-.36.52-1 .8-1.6.64a2.13 2.13 0 0 1-.37-.14c-.83-.43-.46-2.25-.46-2.25l-4.06-1.39s-5.97 2.73-8.27 4.82c-2.3 2.08-6.92-.67-6.92-.67l-.3-9.48 8.77-5.93s-.54.35.2-.91c.73-1.26 3.07-.35 3.07-.35.48-.6 2.09-.58 2.09-.58l6.61 1.91c1.36.39 2.48 1.4 3.04 2.75l2.13 5.13s.99 3.61.63 4.35c-.54 1.12-1.71.66-1.71.66s-.67 2.15-1.24 2.14c-.57-.03-1.61-.7-1.61-.7h0z"/></g><g class="K"><path d="M183.79 520.11c.01.01.16-.07.45-.25l1.27-.75a48.69 48.69 0 0 1 4.91-2.43h-.1l4.05 1.42-.11-.21c-.06.35-.1.7-.08 1.07.02.36.07.76.31 1.12a1.07 1.07 0 0 0 .51.35c.18.08.38.13.58.13.41.01.81-.15 1.13-.42.08-.07.15-.14.22-.23l.05-.06.02-.03.01-.02h0c.06-.01-.49.1-.26.05h0l.01.01.12.08.51.29a5.38 5.38 0 0 0 .55.24l.3.09a.78.78 0 0 0 .4-.01c.26-.14.38-.33.5-.5.11-.18.21-.37.3-.56a9.27 9.27 0 0 0 .45-1.18l-.27.13c.53.19 1.18.16 1.64-.29.21-.21.39-.48.42-.82a4.09 4.09 0 0 0-.02-.86c-.13-1.11-.39-2.19-.68-3.29v-.01l-.01-.01-1.14-2.74-.72-1.74c-.24-.56-.44-1.17-.82-1.7-.36-.52-.83-.96-1.35-1.29-.52-.34-1.13-.5-1.66-.65l-6.23-1.78-.03-.01H189a5.57 5.57 0 0 0-1.16.12c-.37.09-.77.19-1.07.54l.25-.04c-.67-.42-1.49-.56-2.18-.23-.69.32-1.09.97-1.34 1.59l.06-.08-6.04 4.06-1.63 1.13-.55.42c.01.01.22-.1.6-.34l1.68-1.05 6.12-3.93.04-.03.02-.06c.23-.55.61-1.13 1.18-1.38.56-.27 1.28-.14 1.83.22l.14.09.11-.13c.18-.21.53-.33.87-.4s.72-.1 1.08-.1l-.05-.01 6.22 1.81c.56.16 1.08.3 1.55.61a4.24 4.24 0 0 1 1.22 1.17c.34.46.52 1.04.78 1.62l.72 1.74 1.14 2.74-.01-.03.67 3.22c.03.26.05.53.02.76-.01.2-.14.4-.29.56-.3.31-.8.35-1.2.21l-.2-.07-.07.2a9.06 9.06 0 0 1-.43 1.13c-.15.34-.37.75-.58.86-.01 0-.09.01-.17-.01a1.17 1.17 0 0 1-.25-.07c-.17-.06-.34-.13-.5-.22l-.48-.27-.12-.07h-.01 0c.23-.05-.32.06-.26.05h0l-.01.01-.02.03-.04.05a1.45 1.45 0 0 1-.17.18 1.33 1.33 0 0 1-.88.34c-.16 0-.31-.04-.45-.1-.16-.05-.27-.12-.36-.23-.33-.49-.27-1.27-.18-1.88l.02-.16-.14-.05-4.07-1.36-.05-.02-.05.02c-2.15.95-3.78 1.89-4.88 2.57l-1.24.82c-.27.18-.41.29-.4.31z"/><path d="M187.67 506.65c-.02.05.73.5 2.06 1.02 1.33.53 3.25 1.09 5.49 1.33l-.2-.19.21 1.13a17.82 17.82 0 0 0 2.58 6.04c.47.69.9 1.22 1.22 1.56s.51.51.53.49c.06-.05-.62-.83-1.48-2.24-.86-1.4-1.86-3.49-2.41-5.96l-.21-1.1-.03-.18-.17-.02c-2.19-.22-4.1-.72-5.43-1.16l-2.16-.72zm5.77 5.11c-.11 0 .03 2 1.07 4.18 1.02 2.19 2.44 3.54 2.51 3.46.1-.09-1.13-1.54-2.11-3.66-.99-2.11-1.33-4-1.47-3.98z"/><path d="M174.27 517.67c-.01.01.06.07.19.16.13.1.34.23.62.37.56.29 1.44.64 2.6.75a7.15 7.15 0 0 0 4.03-.81c1.41-.74 2.78-2.08 3.55-3.91l-.27.12c1.46.55 3.11.93 4.83 1.04.62.04 1.23.04 1.84.02.6-.03 1.22-.06 1.81-.3.28-.11.61-.32.76-.65.16-.33.16-.7.04-1.03-.12-.32-.36-.59-.66-.73l-.75-.33-5.31-2.03-3.66-1.1-1.37-.29c-.01.03.47.19 1.32.47l3.61 1.24 5.25 2.12.74.33c.2.09.35.27.43.49.07.22.07.47-.03.67-.09.2-.29.33-.54.44-.49.2-1.07.23-1.66.26s-1.19.02-1.79-.02c-1.68-.11-3.29-.47-4.72-.99l-.19-.07-.08.19c-.71 1.73-1.99 3.02-3.33 3.75-1.34.75-2.73.93-3.84.86-1.12-.07-1.99-.37-2.56-.61l-.86-.41z"/></g><path d="M85.87 474.04c-6.75-.06-12.21-5.86-12.3-13.04l-.52-43.24c-.49-11.61 5.45-21.59 16.36-21.79l1.01.04c10.16.45 18.29 9.12 18.69 19.95.37 10.07.77 19.8.49 25.18-.56 11.14-11.2 12.24-11.2 12.24-.02 0-.03 4.16-.02 7.43.01 7.34-5.61 13.3-12.51 13.23h0z" class="J"/><path d="M98.41 453.44s-6.61.12-13.46-4.89c0 0 2.95 8.52 13.43 7.98l.03-3.09z" class="K"/><g class="B"><path d="M105.25 425.86a1.54 1.54 0 0 1-1.5 1.54c-.82.01-1.49-.66-1.48-1.5a1.54 1.54 0 0 1 1.5-1.54c.82-.02 1.49.66 1.48 1.5z"/><use xlink:href="#F"/><path d="M90.66 425.86a1.54 1.54 0 0 1-1.5 1.54c-.82.01-1.49-.66-1.48-1.5a1.54 1.54 0 0 1 1.5-1.54c.82-.02 1.48.66 1.48 1.5z"/><use xlink:href="#F" x="-15.78" y="-0.3"/><path d="M96.18 433.89c0-.1 1-.24 2.63-.39.41-.03.8-.1.89-.39.11-.31-.04-.79-.22-1.31l-1.08-3.38-2.39-8.83c.18-.06 1.55 3.79 3.05 8.6l1.03 3.4c.14.5.38 1.08.15 1.73a1.03 1.03 0 0 1-.7.61c-.27.07-.5.07-.7.07-1.65.03-2.66-.01-2.66-.11zm-4.53-18.74c-.24.43-1.78-.1-3.68-.23-1.9-.17-3.49.12-3.67-.34-.08-.22.26-.6.94-.92s1.71-.56 2.84-.47c1.14.09 2.12.48 2.75.91.64.41.92.84.82 1.05zm15.31.59c-.34.38-1.64-.06-3.22-.12-1.57-.11-2.92.18-3.21-.24-.13-.2.09-.59.68-.94.58-.35 1.55-.62 2.63-.56s2.01.44 2.55.85c.55.42.73.83.57 1.01z"/></g><path d="M73.58 426.05c-.18-.09-7.1-2.58-7.17 5.05s7.14 6.13 7.15 5.91c.02-.23.02-10.96.02-10.96z" class="J"/><path d="M71.4 434.09c-.03-.02-.13.09-.34.19s-.56.16-.93.01c-.75-.3-1.38-1.59-1.4-2.96-.01-.69.13-1.35.37-1.9.22-.56.57-.94.95-1.01.38-.09.65.16.73.37.09.21.05.37.09.38.02.02.15-.13.1-.44-.03-.15-.11-.33-.28-.48s-.42-.23-.69-.2c-.55.04-1.05.57-1.31 1.17-.29.6-.46 1.34-.45 2.12.03 1.54.76 2.98 1.79 3.31.5.15.92-.01 1.14-.19.22-.19.26-.36.23-.37z" class="K"/><path d="M78.71 407c.3-1.98 1.74-3.59 3.58-4.23 1.55-.54 3.25-.54 4.84.06 4.03 1.52 10.92 3.8 12.72 2.34 2.59-2.1 3.21-3.46 3.21-3.46l1.42 1.6c1.16-.68-2.32-4.68-5.17-6.06-4.3-2.08-10.88-3.37-14.85-2.17-4.78 1.44-8.75 3.97-11.15 8.6S70 413.71 70.14 419c.04 1.61-.24 6.24 1.26 6.6 1.16.28 2.66.81 2.58 3.14-.03.85.2 1.71.74 2.33 1.31 1.49 2.91.09 3.65-1.31 1.58-2.99 1.75-6.55 1.89-9.98.1-2.43.19-4.92-.45-7.26 0 0-1.06-3.01-1.15-4.69-.01-.27.01-.55.05-.83zm17.75 31.02c.04.12-.29.4-.95.55-.65.15-1.66.11-2.59-.42-.94-.53-1.51-1.37-1.75-2.02-.25-.65-.21-1.1-.09-1.13.25-.09.78 1.45 2.29 2.3 1.49.87 3.01.46 3.09.72z" class="B"/><path d="M103.9 539.78l-34.26-7.8-21.99-56.51s-29.42 6.76-34.28 23.78C9.17 513.97.5 579.02 20.21 619.13c5.07 10.31 15.39 16.71 26.57 16.71h149.9c18.92 0 34.84-14.73 36.94-34.21.85-7.85 1.44-15.31 1.32-20.16l-24.07-19.13-106.97-22.56z" class="F"/><g opacity=".3"><path d="M195.54 559.44c10.55 14.27 23.39 27.1 38.74 35.48l.73-19.37-28.35-20.9-11.12 4.79z"/></g><path d="M82.37 464.48c0 1.03 7.79 4.35 11.31 2.9 5.36-2.22 4.7-6.57 4.7-6.57l2.97 3.25 29.84 47.08 22.18 15.16-35.5 11.64-37.21-44.27 1.71-29.19z" fill="#f5f5f5"/><g class="C"><path d="M72.97 448.68l-.78 1.52-3.54 6.84-14.74 9.73 30.3 37.3 13.84 33.86 33.15 10.75s-15.77-25.12-20.67-37.96-5.4-12.24-9.87-21.64c-4.28-9-8.1-20.4-8.1-20.4l-19.59-20zm71 67.18l6.5 6.28 1.84 3.88-24.17-11.65-17.45-25.3-8.36-19.4-3.93-8.43-.02-4.24 8.82 8.23 7.35 2.27 12.28 20.1 17.14 28.26z"/><path d="M136.52 492.2l-5.33-11.87c-5.4-12.14-18.13-13.3-18.13-13.3l14.07 40.41 17.24 12.66s4.9 1.77 5.52 0l3.48-13.45c-.11-.05-12.27-3.82-12.27-3.82l-4.9-11.32"/></g><path d="M162.44 479.59l-16.74 28.89 17.53-.54 15.46-26.77c.59-1.03-.12-2.33-1.28-2.33h-13.7c-.52 0-1 .28-1.27.75z" class="B"/><path d="M98.04 512.26l41.91-5.17 7.05-12.77 5.52-3.14c.94-.53 2.08-.46 2.95.19l.52.39 4.09-.53c.7-.09 1.4.05 2.01.41l2.9 1.71c.43.26.69.73.69 1.24h0c0 .9-.79 1.58-1.64 1.42l-2.82-.54-4.31 1.46s2.78.31 3.14 2.5c.35 2.19-1.06 2.23-1.06 2.23s2.93 1.77.88 4.34c0 0 2.44 1.68-.29 4.88-1.85 2.17-15.2 9.22-15.2 9.22l-46.33 17.83v-25.67z" class="J"/><path d="M159.75 506.04c0-.02.31 0 .68.39.35.38.69 1.19.45 2.14-.23.95-.97 1.83-1.8 2.67-.83.86-1.83 1.72-2.94 2.52-2.23 1.59-4.44 2.7-6.05 3.46l-2.65 1.11c-.03-.06.94-.57 2.51-1.4 1.56-.83 3.73-1.97 5.93-3.54 1.1-.79 2.08-1.62 2.91-2.44.84-.82 1.54-1.62 1.79-2.46.26-.83 0-1.57-.28-1.94-.29-.39-.57-.47-.55-.51zm-3.94-14.16c.03.12-.91.49-2.09.82-1.19.33-2.18.5-2.21.38s.91-.49 2.09-.82c1.19-.33 2.18-.51 2.21-.38zm5.4 3.59c.04.12-1.26.68-2.91 1.24-1.65.57-3.01.93-3.05.81s1.26-.67 2.91-1.24c1.65-.56 3.01-.92 3.05-.81zm-5.02 5.8c-.12-.01-.18-.39-.33-.82-.14-.43-.31-.76-.22-.85.08-.09.47.17.64.7s.02.99-.09.97zm1.43 5.01c-.12-.03-.08-.65-.25-1.36-.16-.72-.48-1.24-.39-1.33.08-.09.62.38.81 1.22.21.83-.06 1.51-.17 1.47z" class="K"/><path d="M55.08 465.99c-1.39.88-13.24 9.25-11.51 22.98S71.53 533.75 77 534.34l21.04 3.58v-25.67l-10.09-.6-13.25-26.86-19.62-18.8z" class="C"/><path d="M98.04 511.01c0 .02-.26.05-.75.08l-2.12.08-7.54.17h-.11l-.07-.09-5.33-7.42-8.08-11.44-2.4-3.5-.83-1.32s.37.41.98 1.21l2.53 3.41 8.19 11.35 5.29 7.45-.17-.09 7.54.01 2.13.04.74.06zm-5.12-38.94c-.02.01-.16-.26-.41-.78l-1.04-2.25.22.02c-.63.94-1.33 2.15-2.03 3.62-.7 1.46-1.49 3.16-2.64 4.81l-.17.24-.18-.23-4.6-5.49c-3.67-4.14-7.18-7.71-9.69-10.33l-2.96-3.12c-.69-.75-1.06-1.17-1.04-1.19s.44.35 1.17 1.06l3.06 3.01c2.57 2.56 6.11 6.1 9.8 10.25 1.68 1.9 3.24 3.77 4.59 5.53l-.35.01c1.14-1.61 1.94-3.26 2.67-4.72s1.48-2.68 2.15-3.61l.14-.19.09.21.93 2.3c.22.55.32.84.29.85zm14.36-6.56c.04-.02.3.44.64 1.29s.7 2.12 1.1 3.61l.28 1.06-.65-.87c-.8-1.08-1.89-2.22-3.09-3.38l-2.8-2.57.36-.14c-.22 1.72-.08 3.24-.13 4.31-.02 1.07-.16 1.69-.2 1.68-.05-.01-.01-.62-.06-1.68-.03-1.06-.23-2.56-.04-4.37l.04-.41.31.27 2.84 2.55c1.22 1.17 2.31 2.35 3.11 3.48l-.37.19-.93-3.64-.41-1.38zm30.47 41.85c-.02.02-.38-.32-1-.96l-2.59-2.73-3.79-4.13-1.9-2.72c-.7-.95-1.23-2.04-1.75-3.16-1.01-2.26-1.76-4.48-2.45-6.5l-1.83-5.35-1.44-3.51-.6-1.26c.01-.01.09.09.22.28.12.2.34.48.54.88.45.78.99 1.97 1.59 3.47l1.93 5.32 2.46 6.45c.51 1.1 1.03 2.17 1.7 3.08l1.87 2.73 3.69 4.17 2.49 2.84.86 1.1zm12.17 14.5l79.55-2.32c1.26-.03 2.52.19 3.67.71 2.89 1.28 8.1 4.55 11.66 12.4 5.18 11.39 29.29 59.37 29.29 59.37l-24.39 12.95-29.92-57.47-92.2-8.11 1.07-7.63 21.27-9.9z" class="B"/><path d="M242.46 594.87l12.71 22.59.85 5.71c.52 3.49 3.67 5.89 7.05 5.36l38.69-6.15c1.94-.31 3.2-2.44 2.39-4.28a2.64 2.64 0 0 0-1.84-1.55c-3.24-.85-28.2-10.35-28.2-10.35l-10.41-21.6-21.24 10.27z" class="H"/><g class="B"><path d="M253.11 600.09c-.1.07-1.38-1.55-2.86-3.63l-2.5-3.9c.1-.07 1.38 1.55 2.86 3.63l2.5 3.9zm7.6-3.16c-.09.07-1.4-1.55-2.67-3.81-1.27-2.25-1.99-4.24-1.88-4.28.12-.05 1.01 1.83 2.26 4.05l2.29 4.04zm5.3 30.87c-.08.02-.29-.78-.87-1.96-.57-1.17-1.58-2.7-3.1-3.93a11.35 11.35 0 0 0-4.43-2.19l-2.04-.41c0-.06.81-.18 2.11.04 1.29.21 3.07.84 4.67 2.14a10.83 10.83 0 0 1 3.12 4.19c.52 1.27.6 2.11.54 2.12zm26.07-3.88c-.05.02-.37-.51-.62-1.5-.25-.97-.32-2.45.19-3.93.5-1.48 1.36-2.6 2.01-3.33.67-.73 1.16-1.09 1.2-1.04.05.06-.34.52-.92 1.29-.57.77-1.34 1.88-1.8 3.26-.47 1.38-.46 2.74-.32 3.69.15.94.34 1.52.26 1.56z"/><path d="M125.55 533.09l86.09-8.18c7.36.63 20.94 12.65 45.03 29.41 19.99 13.9 34.57 30.09 34.57 30.09l-7.7 18.21s-53.99-20.38-62.46-27.71c-7.04-6.09-19.87-14.76-19.87-14.76l-31.67.33-23.53 2.15c-11.8 1.08-23.31-4.17-30.51-13.91l-9.14-12.36 19.19-3.27z"/></g><path d="M200.83 559.89l.38.26 1.11.79 4.26 3.1c3.7 2.74 9.14 6.66 15.8 11.89.42.32.82.7 1.27.98l1.36.88c.97.51 1.95 1.06 2.99 1.56l3.18 1.53 3.34 1.53 14.75 6.39 35.08 14.32-.28.13 6.98-18.31.05.26-9.58-10.12.01.01-7.13-6.29c-15.75-13.58-31.63-25.19-46.01-34.96l-.01-.01-.01-.01c-2.19-1.96-4.56-3.64-6.97-5.08-2.42-1.43-4.91-2.59-7.45-3.35-.64-.18-1.28-.32-1.91-.48l-1.92-.3-1.91-.1h-1.91c-2.53 0-4.98-.01-7.36-.01l-24.79-.05-16.09-.06-4.26-.03-1.1-.02-.37-.02s.13-.01.37-.02c.26 0 .62-.01 1.1-.02l4.26-.03 16.09-.06 24.79-.05 7.36-.01h1.91l1.95.1 1.95.31 1.94.49c2.58.76 5.1 1.94 7.54 3.37a45.08 45.08 0 0 1 7.05 5.12l-.03-.02c14.41 9.75 30.31 21.36 46.08 34.95l7.14 6.29.01.01.01.01 9.58 10.12.11.11-.06.15-7 18.31-.08.21-.2-.08-35.06-14.38-14.74-6.44-3.34-1.54-3.18-1.54c-1.03-.51-2.02-1.07-3-1.58l-1.39-.91c-.46-.3-.85-.67-1.26-.99-6.63-5.25-12.04-9.22-15.71-11.99l-4.22-3.16-1.08-.82-.39-.34z" class="F"/><path d="M266.1 597.99l22.75 9.27 3.79 4.24c2.32 2.6 6.23 2.75 8.73.35l28.73-27.53c1.44-1.38 1.34-3.88-.34-4.94-.64-.4-1.42-.57-2.37-.22-3.14 1.17-28.96 7.78-28.96 7.78l-17.29-14.29-15.04 25.34z" class="H"/><g class="B"><path d="M266.1 597.99l.24-.44.76-1.31 2.96-5.06L281 572.59l.1-.17.15.12 17.32 14.26-.17-.04 15.4-4.02 8.14-2.19 4.15-1.18a17.65 17.65 0 0 0 1.03-.33c.33-.11.72-.25 1.11-.27.79-.06 1.59.27 2.16.83 1.18 1.13 1.23 3.12.31 4.39-.22.33-.52.59-.77.83l-.78.75-1.56 1.49-6.12 5.86L309.89 604l-5.39 5.15-2.58 2.47c-.41.4-.87.82-1.36 1.13-.5.3-1.03.57-1.59.72-2.22.67-4.64-.02-6.15-1.58l-4.05-4.53.06.04-16.66-6.89-4.49-1.87-1.16-.49-.42-.16s.15.05.42.16l1.2.47 4.56 1.81 16.63 6.68.03.01.02.03 4.06 4.49c1.43 1.47 3.73 2.11 5.82 1.47.53-.14 1.02-.4 1.49-.68.47-.31.88-.68 1.3-1.09l2.58-2.48 5.38-5.17 11.56-11.1 6.12-5.87 1.56-1.5c.5-.51 1.11-.99 1.5-1.52.8-1.1.75-2.84-.25-3.79-.49-.48-1.16-.76-1.83-.71-.34.02-.64.13-1 .25l-1.05.33-4.16 1.18-8.15 2.18-15.41 3.99-.1.03-.08-.06-17.27-14.32.24-.04-11.04 18.4-3.05 5.06-.81 1.32-.27.47z"/><path d="M303.42 609.55c-.06.07-.66-.48-1.78-1.12-1.11-.64-2.77-1.32-4.7-1.46a11.22 11.22 0 0 0-4.85.75l-1.91.85c-.03-.05.58-.62 1.77-1.19 1.18-.58 3-1.09 5.03-.94s3.75.92 4.85 1.67c1.1.74 1.63 1.39 1.59 1.44zm19.5-18.34c-.03.05-.58-.21-1.32-.88a6.96 6.96 0 0 1-1.97-3.37c-.39-1.52-.28-2.95-.13-3.93.16-.99.37-1.57.43-1.56.08.02 0 .63-.07 1.6-.05.97-.09 2.33.27 3.75s1.1 2.53 1.73 3.24 1.11 1.08 1.06 1.15z"/></g><path d="M186.87 559.9c-1.76-8.65-5.36-17.51-12.49-22.38-5.41-3.7-12.1-4.61-18.53-5.43L21.33 514.96c-1.2 21.96 7.87 49.28 17.12 69.07 1.44 3.07 3.1 6.21 5.85 8.09 3.35 2.29 7.65 2.27 11.67 2.16 45.25-1.19 90.52-3.19 135.52-8.32-2.53-8.43-2.86-17.4-4.62-26.06z" class="F"/><g class="B"><path d="M70.81 521.26c0 .03-.57 0-1.58-.11l-4.3-.48-14.15-1.86-14.1-2.23-4.25-.83-1.54-.39s.57.04 1.58.2l4.27.68 14.12 2.09 14.13 2.01 4.28.64 1.54.28zm.7 114.58c-.01 0-.05-.09-.14-.27l-.37-.8-1.37-3.12-.98-2.26-1.05-2.74-2.41-6.73-1.28-3.96-1.22-4.35-2.35-9.69c-1.39-6.89-2.53-14.54-3.1-22.64-.51-8.11-.4-15.86.06-22.88.31-3.5.56-6.84 1.04-9.93.22-1.55.38-3.05.63-4.48l.74-4.1c.43-2.62 1.03-4.95 1.49-7.01l.67-2.86.67-2.38.94-3.28.26-.85c.06-.19.1-.29.1-.28.01 0-.01.1-.06.3-.05.22-.12.5-.21.86l-.86 3.3-.63 2.38c-.21.88-.41 1.84-.63 2.86-.43 2.06-1.02 4.39-1.42 7.01l-.71 4.1c-.24 1.43-.39 2.93-.6 4.47-.46 3.09-.69 6.41-.99 9.91-.43 7-.53 14.73-.02 22.81.57 8.08 1.7 15.71 3.06 22.58.76 3.42 1.43 6.68 2.3 9.67.42 1.5.76 2.96 1.19 4.34l1.25 3.96c.75 2.54 1.64 4.76 2.34 6.74l1.01 2.75.94 2.27 1.29 3.15.32.82c.07.23.11.33.1.33zm-1.43-44.25c-.01.14-2.38.13-5.29-.01l-5.27-.5c.01-.14 2.38-.13 5.3.01l5.26.5z"/><path d="M68.86 597.95c-.02.12-2.54-.25-5.43-1.47-2.9-1.21-4.96-2.76-4.89-2.86.08-.13 2.22 1.22 5.07 2.4 2.83 1.21 5.28 1.79 5.25 1.93zm-11.78-43.73c.06.11-1.45.91-3.5 1.1-2.05.21-3.68-.27-3.64-.39.02-.15 1.63.11 3.6-.1 1.96-.18 3.49-.75 3.54-.61zm2.68-2.1c.03.12-1.81.41-3.86-.5-2.06-.89-3.14-2.46-3.03-2.52.1-.11 1.28 1.24 3.22 2.07 1.92.86 3.67.8 3.67.95zm47.37-149.64c-.59-1.84-2.23-3.18-4.03-3.71s-3.74-.33-5.53.22l-17.48 4.14c2.5 1.72 7.73 3.39 10.72 3.72 4.36.48 7.43.52 10.03-1.03.53 1.86 2.96 2.68 4.59 1.73 1.64-.96 2.29-3.24 1.7-5.07zm174.59 189.86c-.03.12-2.41-.47-5.22-1.57-2.82-1.09-4.98-2.28-4.93-2.38.05-.12 2.28.87 5.08 1.96l5.07 1.99zm3.86-7.74c-.06.11-2.02-.97-4.48-2.19l-4.45-2.26c.04-.11 2.16.61 4.64 1.85 2.47 1.23 4.35 2.5 4.29 2.6z"/></g><path d="M146.37 529.79l35.24.45 42.54-8.73c1.38-.28 2.43-1.43 2.64-2.86l5.78-39.67c.29-1.96-1.35-3.64-3.24-3.32l-43.49 7.33c-1.24.21-2.19 1.24-2.35 2.52l-4.85 40.34-32.22-.16c-1.1-.01-1.99.92-1.99 2.05h0c0 1.11.86 2.02 1.94 2.05z" class="H"/><g class="B"><path d="M146.37 529.79s-.24.04-.67-.11c-.41-.15-1.07-.59-1.27-1.51-.09-.45-.05-1 .24-1.5.28-.49.8-.92 1.46-1.02l4.42-.02 28.1.07-.16.14 4.85-40.6c.2-1.01.92-1.9 1.86-2.27.48-.2.96-.22 1.42-.31l1.4-.24 5.68-.96 11.7-1.98 12.11-2.04 6.19-1.04 3.13-.53 1.57-.26c.52-.07 1.04-.23 1.64-.18 1.21.09 2.3 1 2.65 2.2.19.58.15 1.26.05 1.8l-.25 1.7-.98 6.73-1.92 13.14-1.85 12.67-.45 3.08-.22 1.53c-.06.49-.16 1.06-.41 1.54-.47.97-1.38 1.69-2.39 1.91l-2.85.59-39.77 8.11h-.02-.02l-25.83-.4-6.98-.13-1.81-.04-.62-.07s.21-.01.62-.01h1.81l6.98.05 25.83.26h-.03l39.75-8.21 2.84-.59a3.12 3.12 0 0 0 2.11-1.69c.22-.43.3-.89.37-1.41l.22-1.53.45-3.08 1.84-12.67 1.91-13.15.98-6.73.25-1.7c.1-.58.12-1.08-.03-1.6-.3-1.02-1.24-1.8-2.27-1.88-.48-.04-1 .1-1.53.18l-1.57.26-3.13.53-6.19 1.04-12.11 2.04-11.7 1.97-5.68.95-1.4.23c-.47.09-.94.12-1.34.29-.81.32-1.44 1.09-1.61 1.97l-4.93 40.56-.02.14h-.14l-28.1-.21c-1.65 0-3.14-.05-4.4-.02-.62.08-1.12.48-1.38.94a2.1 2.1 0 0 0-.24 1.42c.18.89.8 1.33 1.2 1.49.4.17.64.14.64.16z"/><path d="M187.25 484.24c.12.02-1.05 10.55-2.61 23.53l-3.04 23.47c-.12-.02 1.05-10.55 2.61-23.53l3.04-23.47z"/></g><path d="M206.16 500.62c-.89 1.91-.4 4.06 1.09 4.8 1.48.74 3.41-.22 4.29-2.13.89-1.91.4-4.06-1.09-4.8-1.48-.73-3.4.22-4.29 2.13z" class="D"/><path d="M593.75 498.65c.01 0-.02.11-.08.31l-.28.9-1.14 3.44c-1.01 2.98-2.53 7.28-4.54 12.54-4.04 10.49-10.03 24.91-18.51 39.78-2.03 3.76-3.89 7.5-5.3 11.29-1.42 3.78-2.32 7.6-2.83 11.28-1 7.39-.6 14.16-.03 19.76.59 5.61 1.37 10.12 1.87 13.24l.6 3.59.15.93a7.05 7.05 0 0 1 .04.32c-.01 0-.03-.1-.08-.31l-.19-.93-.68-3.57c-.55-3.11-1.38-7.61-2.01-13.23-.6-5.61-1.04-12.4-.05-19.85.5-3.71 1.4-7.57 2.83-11.38 1.41-3.82 3.28-7.58 5.31-11.35 8.48-14.86 14.49-29.22 18.6-39.68 2.05-5.24 3.6-9.52 4.66-12.48l1.22-3.41c.14-.37.24-.67.32-.89.07-.2.11-.3.12-.3zm-7.72 49.69c.01.01-.08.17-.26.48l-.81 1.33-3.05 4.85c-2.59 4.08-6.29 9.65-10 16.02-1.85 3.2-3.48 6.31-4.86 9.2-1.39 2.89-2.48 5.57-3.35 7.83-.85 2.27-1.51 4.13-1.91 5.43l-.5 1.49c-.12.34-.19.51-.2.51s.03-.19.12-.54l.42-1.51c.36-1.32.97-3.19 1.79-5.49a96.48 96.48 0 0 1 3.28-7.9 125.1 125.1 0 0 1 4.85-9.25c3.73-6.39 7.46-11.93 10.12-15.97l3.16-4.77.87-1.29c.21-.28.32-.43.33-.42z" class="B"/><g class="F"><path d="M593.67 498.65c.2-2.02-1.91-4.04-3.75-4.75s-3.89-.48-5.81-.04c-11.12 2.55-20.31 12.49-22.29 24.11 5.13-2.63 10.42-4.95 15.82-6.93l-.91.27c5.22-1.05 9.92-4.61 12.47-9.44.49-.93.92-1.93 1.67-2.65.73-.72 1.91-1.1 2.8-.57"/><path d="M593.68 498.63c5.07-3.58 11.47-5.19 17.51-4.07s11.6 5.05 14.55 10.62c2.94 5.57 3.08 12.71.09 18.26-2.83-6.09-5.86-12.43-11.13-16.42-1.23-.93-2.63-1.79-3.32-3.2-.81-1.64-.48-3.66-1.17-5.35-.85-2.08-3.19-2.69-5.37-2.81-2.18-.11-8.5 1.97-11.16 2.97"/><path d="M593.54 498.53c5.24-1.61 11.16 1.04 14.72 5.1s5.37 9.51 5.99 14.96c.61 5.45.12 10.96-.41 16.42-4.09-6.32-7.15-13.35-9.02-20.7-.84-3.33-1.46-6.76-2.97-9.83-1.51-3.05-5.02-5.45-8.31-5.95"/><path d="M593.37 498.65c4.18-2.01 6.54-6.53 7.08-11.28.54-4.74-1.45-9.71-5.07-12.66-4.17 3.93-5.77 10.52-3.9 16.03.88 2.6 2.49 5.22 1.89 7.91"/></g><path d="M559.93 586.53c-.01 0-.1-.22-.26-.65l-.69-1.89-2.86-6.8c-2.59-5.66-6.68-13.24-11.81-21.19-5.13-7.96-10.27-14.82-14.35-19.44-2.04-2.31-3.8-4.08-5.13-5.15a15.88 15.88 0 0 0-1.59-1.15c-.39-.21-.6-.33-.59-.34s.22.08.63.27c.4.21.97.56 1.65 1.09 1.37 1.04 3.18 2.79 5.25 5.08 4.15 4.59 9.34 11.44 14.48 19.41s9.2 15.59 11.73 21.3c1.27 2.85 2.18 5.22 2.75 6.87.3.82.48 1.48.62 1.92.12.44.18.67.17.67z" class="B"/><path d="M574.98 636.03h-28.59l-4.46-34.28h38.37z" class="C"/><g class="F"><use xlink:href="#G"/><use xlink:href="#H"/><use xlink:href="#I"/><use xlink:href="#J"/><use xlink:href="#K"/></g><path d="M539.31 601.75h42.76v7.71h-42.76z" class="C"/><path d="M580.64 609.71c0 .12-9.25.22-20.67.22s-20.67-.1-20.67-.22 9.25-.22 20.67-.22l20.67.22z" class="B"/><g class="F"><path d="M595.64 498.95c-1.5-2.69-3.01-5.4-4.97-7.74-1.96-2.35-4.43-4.34-7.31-5.21-3.85-1.17-7.99-.24-11.84.94-4.5 1.39-8.9 3.12-13.14 5.18a25.13 25.13 0 0 0 17.47.32c2.94-1.04 5.8-.9 8.89-.54 3.75.45 8.46 4.06 10.9 7.05"/><use xlink:href="#L"/><use xlink:href="#M"/><use xlink:href="#N"/><use xlink:href="#O"/><use xlink:href="#P"/><use xlink:href="#Q"/></g><g opacity=".3"><use xlink:href="#L"/><use xlink:href="#M"/><use xlink:href="#N"/><use xlink:href="#O"/><use xlink:href="#P"/><use xlink:href="#Q"/></g><g class="G"><use xlink:href="#G"/><use xlink:href="#H"/><use xlink:href="#I"/><use xlink:href="#J"/><use xlink:href="#K"/></g><path d="M515.84 215.92h-36.58c-6.22 0-11.26 5.22-11.26 11.66v32.97c0 6.44 5.04 11.66 11.26 11.66h10.68l-2.58 10.41 10.16-10.41h18.32c6.22 0 11.26-5.22 11.26-11.66v-32.97c0-6.44-5.04-11.66-11.26-11.66z" class="C"/><path d="M515.84 215.92h-36.58c-6.22 0-11.26 5.22-11.26 11.66v32.97c0 6.44 5.04 11.66 11.26 11.66h10.68l-2.58 10.41 10.16-10.41h18.32c6.22 0 11.26-5.22 11.26-11.66v-32.97c.01-6.44-5.04-11.66-11.26-11.66z" opacity=".7" class="D"/><ellipse cx="497.55" cy="243.92" rx="18.15" ry="18.8" class="C"/><path d="M495.65 252.32c-.49 0-.95-.22-1.27-.61l-7.12-8.69c-.6-.73-.51-1.82.19-2.44s1.75-.53 2.35.2l5.85 7.14 9.66-11.79c.6-.73 1.65-.82 2.35-.2s.79 1.71.19 2.44l-10.93 13.34c-.32.39-.78.61-1.27.61z" class="D"/><path d="M413.52 342.41c.07.67-.4 1.21-1.05 1.21h-11.64c-.65 0-1.24-.54-1.32-1.21l-2.6-23.79c-.07-.67.4-1.38 1.05-1.38h11.64c.65 0 1.24.71 1.32 1.38l2.6 23.79z" class="B"/><path d="M409.63 318.47l2.63 24.02c.07.68-.27 1.14-.92 1.14h-9.87c-.66 0-1.87-.38-1.95-1.05l-2.63-24.1c-.07-.68 1.06-1.22 1.72-1.22h9.87c.65-.01 1.07.53 1.15 1.21z" opacity=".5" class="D"/><path d="M418.66 339.85c-2.56 5.12-5.46 10.57-8.42 15.49-2.66 4.29-5.46 8.91-9.16 11.99-.4.33-.66.35-.17.37 1.1-.07 2.73.6 3.16 1.48-1.39-1.71-2.01-5.39-2.62-7.86-1.19-5.68-1.96-11.88-2.82-17.92-.54-4.52-6.79-4.68-7.56-.23-1.76 11.24-5.16 42.62 13.52 38.33 12.27-3.91 22.43-23.44 27.86-34.78 3.86-9.52-9.04-15.93-13.79-6.87h0z" class="C"/><path d="M399.97 326.28l-3.22.85c-1.21.32-2.2 1.23-2.65 2.43l-2.11 5.64c-.84 2.26-.58 4.8.7 6.82l.8 1.25c5.44-1.03 10.58-6.3 10.58-6.3l1.63-1.33c1.45-1.19 1.73-3.23.64-4.7l-2.51-3.37c-.88-1.15-2.41-1.67-3.86-1.29z" class="E"/><use xlink:href="#R" fill="#007cff"/><use xlink:href="#R" class="C"/><use xlink:href="#R" opacity=".6" class="D"/><path d="M411.22 377.87l2.02-1.77c1.37-1.32 2.58-2.64 3.73-3.98 2.27-2.66 4.18-5.42 6.01-8.18.14-.21.28-.44.41-.65-2.16-3.65-4.38-6.08-4.38-6.08s-6.53 8.51-7.79 20.66z" class="G"/><path d="M417.77 405.02h43.09c-.11-5.1-.09-10.07.08-14.83.18-5.82.55-11.34 1.02-16.47a293.36 293.36 0 0 1 1.62-14.1l.46-3.16c1.85-12.08 3.77-19.48 3.77-19.48-23.5-11.75-45.6-.98-45.6-.98-11.23 16.82-4.44 69.02-4.44 69.02z" class="C"/><path d="M427.35 357.4s12.01 48.49 33.59 32.78c.18-5.82.55-11.34 1.02-16.47a293.36 293.36 0 0 1 1.62-14.1l.46-3.16c-3.2-4.18-6.35-6.8-6.35-6.8s-5.93 11.37-8.9 20.7c0 0-13.84-18.87-16.36-19.31-2.53-.43-5.08 6.36-5.08 6.36z" class="G"/><path d="M398.37 515.07l1.68 2.08 10.89 15.8 15.3 21.76 5.51 7.82 15.62 22.4v.01l3.58 5.26c8.53 12.57 14.66 22.32 15.36 25.52 1.24 1.33 6.29-2.4 6.9-4.35 0 0-5.62-20.51-17.3-46.11l-2.53-5.45c-5.62-11.76-12.47-24.34-20.58-36.34-1.03-1.54-2.09-3.06-3.17-4.58-3.77-5.29-7.78-10.4-12.06-15.26l5.07-8.24 2.36-4h.01a387.28 387.28 0 0 0 7.08-12.71l1.48-2.81c6.37-12.21 11.09-23.02 14.59-32.11.22-.55.42-1.11.62-1.65 7.05-18.69 8.73-29.6 8.73-29.6l-26.34-5.47-2.5-.51-7.81-1.61s-4.55 13.96-9.96 32.64l-1.43 4.97-6.04 22.17-4.71 19.42-.27 1.21c-1.18 5.26-2.22 10.36-3.04 15.14l-.03.08c-1.33 5.05-.24 10.49 2.99 14.52z" class="E"/><path d="M426.24 554.71l5.51 7.82 15.62 22.4v.01l3.58 5.26c1.49-6.46 3.36-15.28 4.95-24.95l-2.53-5.45c-5.62-11.76-12.47-24.34-20.58-36.34-1.03-1.54-2.09-3.06-3.17-4.58-.5 8.42-1.52 22.25-3.38 35.83z" class="G"/><path d="M479.73 622.5l-1.57.97-1.59-1.73-3.78 5.63-13.12 8.14s-3.34-.88 1.91-6.48a5.43 5.43 0 0 0 .68-.9c2.4-3.68 3.98-12.09 3.98-12.09l7.2-4.46s.47.22 1.21.71c1.74 1.14 5.09 3.74 5.08 10.21z" class="B"/><path d="M474.65 612.28c.01.01.01.02.01.02-1.58-.51-3.12 6.99-5.34 10.6-1.99 3.21-4.79 5.83-7.06 5.22 2.4-3.68 3.55-14 3.55-14l5.79-3.59c.01.01 2.31 1.26 3.05 1.75zm-49.57 12.71c1.66 1.52 5.09 2.36 9.09 1.91 0 0 6.96-17.43 13.2-39.96v-.01c2.2-7.93 4.32-16.47 6-25.12 3.4-17.43 5.08-35.23 2.32-49 1.55-5.66 2.92-11.02 4.09-16.11l.84-3.72h.01c3.96-17.89 5.72-32.37 6.21-43.92 0-.05 0-.12.01-.17 1.21-30.04-6.24-40.36-6.24-40.36l-32.3-6.57.22 4.09.14 2.49 1.55 29.29.24 5 1.4 32 .22 5.87.43 13.83.04 1.36.23 10.68.01 18.91c-.1 12.32-.43 25.86-1.04 39.06-1.13 24.64-3.23 48.13-6.67 60.45z" class="E"/><path d="M463.58 359.61a293.36 293.36 0 0 0-1.62 14.1c-1.97-4.06-4.31-13.77-1.23-24.06l2.85 9.96z" class="G"/><path d="M419.52 339.1l3.33.02c1.25.01 2.42.64 3.14 1.7l3.36 4.95c1.34 1.98 1.68 4.51.9 6.79l-.48 1.41c-5.52.35-11.73-3.48-11.73-3.48l-1.89-.89c-1.68-.79-2.42-2.71-1.71-4.4l1.65-3.9c.56-1.33 1.93-2.22 3.43-2.2z" class="E"/><use xlink:href="#S" class="C"/><use xlink:href="#S" opacity=".6" class="D"/><path d="M434.08 635.02h-1.82l-.51-2.33-6.04 2.82h-15.29s-2.43-2.53 4.85-4.55c.33-.09.67-.22 1.03-.41 3.88-1.89 9.41-8.25 9.41-8.25h8.39s.29.44.69 1.25c.92 1.91 2.51 5.92-.71 11.47z" class="B"/><path d="M434.8 623.55v.03c-1.11-1.28-6.15 4.34-9.84 6.25-3.3 1.7-7 2.45-8.65.73 3.88-1.89 9.99-10.12 9.99-10.12h6.75c0-.01 1.35 2.29 1.75 3.11z" class="E"/><path d="M417.37 401.43h43.44l1.17 5.79s16.47 24.24 4.05 82.55c0 0-36.23-1.1-69.14-8.41 0 0 12.48-55.96 20.21-75.09l.27-4.84z" class="B"/><path d="M447.86 406.41h14.57l-.88-4.3h-13.69zm-26.48-4.3h-4.36l-.38 4.3h4.74zm1.45 0h23.61v4.3h-23.61z" class="C"/><g class="D"><path d="M447.86 406.41h14.57l-.88-4.3h-13.69zm-26.48-4.3h-4.36l-.38 4.3h4.74zm1.45 0h23.61v4.3h-23.61z" opacity=".6"/><path d="M435.93 406.74h-6.52c-.4 0-.73-.33-.73-.73v-3.5c0-.4.33-.73.73-.73h6.52c.4 0 .73.33.73.73v3.5a.72.72 0 0 1-.73.73z"/></g><path d="M433.64 333.51l2.81 15.69 17.43-15.69c-3.22-3.42-2.75-11.37-1.55-17.96.37-2.08.81-4.02 1.24-5.64l-13.2 11c.41 2.4.57 4.87-.06 7-.76 2.54-2.66 4.62-6.67 5.6z" class="E"/><path d="M440.3 327.9c8.94-.44 12.03-12.36 12.03-12.36.37-2.08.81-4.02 1.24-5.64l-13.2 11c.4 2.4.57 4.87-.07 7z" class="G"/><path d="M425.19 295.99s-5.08-1.46-3.94-5.11c1.13-3.65 2.9-3.78 2.9-3.78s-3.02-4.43-1.01-9.39 7.56-3.52 7.56-3.52-.45-5.35 4.43-6.78 7.4 3.17 7.4 3.17 2.99-4.87 8.04-4.08c5.06.78 6.69 7.83 6.69 7.83s4.41-2.13 7.18 2.78 0 9.11 0 9.11 3.02-1.84 4.53 3.31-3.4 10.31-3.4 10.31 2.9.09 1.76 4.12-5.79 4.55-5.79 4.55 1.89.78-1.26 4.3-14.58 0-14.58 0l-20.51-16.82z" class="B"/><path d="M437.95 286.35c-10.49 1.57-13.06 7.89-12.27 19.21.99 14.14 5.38 23.64 18.08 18.68 17.25-6.72 11.62-40.5-5.81-37.89z" class="E"/><path d="M432.38 303.94s-1.06 3.06-2.43 4.96c0 0 1.1 1.34 2.94.82l-.51-5.78z" fill="#b84d3c"/><g class="B"><path d="M438.68 302.09c.1.9.66 1.56 1.23 1.49.58-.07.96-.86.86-1.75-.1-.9-.66-1.56-1.23-1.49-.58.07-.97.85-.86 1.75z"/><path d="M439.78 300.35l-1.97-.53s1.13 1.52 1.97.53zm-11.88 2.89c.1.9.66 1.56 1.23 1.49.58-.07.96-.86.86-1.75-.1-.9-.66-1.56-1.23-1.49-.58.07-.96.86-.86 1.75z"/><path d="M429.01 301.5l-1.97-.53c-.01.01 1.12 1.53 1.97.53zm13.51-5.51c.12 0 .24-.05.33-.15a.47.47 0 0 0-.03-.66c-2.05-1.96-5.08-1.11-5.21-1.07-.24.07-.38.33-.31.57.07.25.32.39.55.32.03-.01 2.68-.74 4.35.86a.47.47 0 0 0 .32.13zm-16.53 1.24a.44.44 0 0 0 .3-.12c1.89-1.75 3.59-1.43 3.67-1.41.25.05.48-.11.53-.36s-.1-.5-.35-.55c-.09-.02-2.2-.46-4.45 1.63-.19.17-.2.47-.03.66.08.1.2.15.33.15z"/><path d="M451.97 302.95s-6.15-8.2-6.37-15.2c0 0-22.02-5.69-20 16.33 0 0-4.74-19.11 13.24-22.24 17.95-3.13 21.72 24.21 13.53 33.75.01 0 3.42-7.51-.4-12.64z"/></g><path d="M450.58 305.5c-.17-1.76 1.16-4.98 4.35-5.1 3.3-.12 5.82 6.56-2.04 9.44-1.13.41-1.95-.66-2.31-4.34z" class="E"/><path d="M435.35 315.87c1.05 0 4.84-.28 6-4.29.07-.25-.06-.51-.3-.58s-.49.07-.56.31c-1.14 3.92-5.16 3.64-5.34 3.63-.25-.02-.47.17-.48.43-.02.26.16.48.41.5.01-.01.11 0 .27 0z" class="B"/><path d="M455.49 298.59c-3.71-13.32-24.07-22.86-29.95-6.41 0 0 .98-5.98 5.88-10.59 0 0 19.14-7.67 24.62 15.18l-.55 1.82zm2.72 46.66c-3.11 10.41-5.53 21.68-10.18 31.37.29-.22 1.07-.76 1.88-.96.23-.06.56-.11.79-.12.44 0 .74.05.94.12.37.14.28.2.04.08-2.84-1.74-5.26-5.18-7.55-8.21-3.49-4.78-6.82-10.11-10.1-15.28-2.44-3.76-8.06-1.01-6.84 3.31 3.26 10.51 12.41 37.37 26.46 33.86 5.53-1.8 7.83-7.43 10.13-12.13 4.04-9.13 6.82-18.37 9.21-28.02 2.11-10.14-11.81-13.92-14.78-4.02h0z" class="C"/><path d="M431.05 347.66s-4.86 3.57-6.37 6.4l3.18 4.01 6.31-6.13-3.12-4.28z" fill="#007cff"/><path d="M431.05 347.66s-4.86 3.57-6.37 6.4l3.18 4.01 6.31-6.13-3.12-4.28z" class="C"/><path d="M431.47 347.71s-4.97 3.42-6.56 6.2l3.06 4.1 6.49-5.94-2.99-4.36z" opacity=".6" class="D"/><path d="M467.81 336.97c4.32 2.68 7.53 5.25 4.98 12.68-3.03 8.83-16.3 3.21-16.3 3.21s.07-6.95 2.75-10.47 8.57-5.42 8.57-5.42z" class="C"/><defs ><path id="B" d="M268.11 437.51c-.01 2.22-1.65 4.02-3.66 4.01s-3.64-1.82-3.63-4.04 1.65-4.02 3.66-4.01c2.02.01 3.64 1.82 3.63 4.04z"/><path id="C" d="M279.41 437.57c-.01 2.22-1.65 4.02-3.66 4.01s-3.64-1.82-3.63-4.04 1.65-4.02 3.66-4.01c2.01 0 3.64 1.81 3.63 4.04z"/><path id="D" d="M335.88 437.83c-.01 2.22-1.65 4.02-3.66 4.01s-3.64-1.82-3.63-4.04 1.65-4.02 3.66-4.01 3.64 1.82 3.63 4.04z"/><path id="E" d="M342.42 172.98c2.38-1.04 4.08-3.58 4.09-6.58.02-3.93-2.86-7.13-6.42-7.15s-6.46 3.16-6.47 7.09c-.01 3.03 1.7 5.61 4.11 6.65-9.92 1.55-9.47 12.71-9.47 12.71l23.45.11c.01-.01.55-11.29-9.29-12.83z"/><path id="F" d="M106.7 420.78c-.19.2-1.29-.74-2.9-.81-1.61-.09-2.82.74-2.99.52-.08-.1.12-.46.65-.84.52-.37 1.4-.72 2.4-.67s1.83.48 2.3.9c.48.43.63.81.54.9z"/><path id="G" d="M601.77 560.6c-2.89-6.42-10.31-10.61-17.12-10.03 1.52.63 2.45 2.26 2.83 3.91s.31 3.37.44 5.05c.61 8.11 5.65 15.02 10.49 21.43 3.4 4.5 6.82 9.02 10.88 12.89-.48-11.53-1.18-23.75-7.52-33.25z"/><path id="H" d="M584.65 550.66c4.32-3.45 9.91-4.88 15.37-4.94s10.85 1.16 16.15 2.55c3.18.83 6.41 1.76 9.13 3.66s4.88 4.96 4.94 8.36c-4.49-5.11-11.72-6.1-18.13-8.02-4.34-1.31-8.53-3.17-12.96-4.13-4.42-.96-10.58.17-14.5 2.52"/><path id="I" d="M585.39 549.74c-1.9-2.06-.85-6.88.8-9.16s4.28-3.55 6.87-4.51c3.41-1.26 6.96-2.11 10.55-2.54-.36 2.34-1.69 4.43-3.34 6.07-1.65 1.65-3.61 2.91-5.55 4.15l-9.33 5.99"/><path id="J" d="M567.6 546.97c-5.42 2.46-9.62 7.05-13.66 11.53 6-1.51 11.77-3.99 17.05-7.31 2.1-1.32 4.18-2.8 6.58-3.36 2.4-.55 5.09.55 7.09 2.27-3.4-5.17-11.64-5.59-17.06-3.13z"/><path id="K" d="M565.05 583.69c3.03-7.21 1.75-15.94 5.6-22.72 2.95-5.19 8.39-8.26 13.8-10.45 1.26 3.91.66 8.26-.93 12.03s-4.12 7.04-6.79 10.09c-3.69 4.22-7.69 8.12-11.7 12.02"/><path id="L" d="M493.47 544.64c-6.74 8.88-8.98 20.74-8.23 32.01 3.95-14.93 12.41-28.55 23.91-38.45 4.39-3.78 10.01-6.78 15.46-6.78-11.2-1.03-24.19 4.06-31.14 13.22z"/><path id="M" d="M509.12 526.8c-3.76.29-7.19 2.26-10.3 4.47-4.76 3.38-9.22 7.65-11.29 13.22 8.29-10.32 21.81-15.85 34.67-14.17-4.1-2.11-8.52-3.86-13.08-3.52z"/><path id="N" d="M519.65 513.47c-2.18 1.56-3.84 4.13-3.73 6.88.08 1.88.97 3.64 2.16 5.06s3.09 3.39 4.55 4.51l4.42-19.27c-2.59.53-5.22 1.25-7.4 2.82z"/><path id="O" d="M532.38 512.86c-2.94 1.95-5.56 4.58-6.99 7.88s-2.03 7.46-.22 10.56c5.13-7.89 10.75-15.8 16.67-23.07-3.25 1.33-6.52 2.67-9.46 4.63z"/><path id="P" d="M543.18 523.73c-6.74-.56-13.68 2.58-17.85 8.1 2.77-1.48 6.49-2.29 9.58-1.88 8.29 1.11 16.51 2.69 24.63 4.73-3.26-6.13-9.62-10.39-16.36-10.95z"/><path id="Q" d="M526.11 531.29c-6.35.36-11.9 5.42-14.12 11.59s-1.46 13.17.94 19.27 6.32 11.42 10.47 16.4c2.09-7.42 4.18-14.88 5.1-22.55.91-7.66.22-17.46-2.39-24.71z"/><path id="R" d="M399.21 346.35s-5.94-.48-8.63-2.12l.75-5.13 8.45 1.92-.57 5.33z"/><path id="S" d="M445.52 328.42c13.51-.01 15.21 11.51 15.21 11.51l-6.32-2.82-18.57 12.86-4.56-12.98-5.73 1.1c.01.01 8.23-9.66 19.97-9.67z"/></defs></svg>